# xmcd
#
# Track frame offsets:
#	150
#	31313
#	58436
#	99017
#	151120
#	183314
#	213446
#	233631
#
# Disc length: 3434 seconds
#
# Revision: 1
# Processed by: cddbd v1.5.2PL0 Copyright (c) Steve Scherf et al.
# Submitted via: audiograbber 1.83.01
#
DISCID=5d0d6808
DTITLE=Gary Moore - Live Blues Video CD2
DYEAR=1900
DGENRE=Blues
TTITLE0=Still got the blues
TTITLE1=Since I met you Baby
TTITLE2=The Thrill is gone
TTITLE3=The Sky is crying
TTITLE4=Further on up the Road
TTITLE5=King of the Blues
TTITLE6=Jumpin' at Shadows
TTITLE7=Stop messin' around
EXTD=
EXTT0=
EXTT1=
EXTT2=
EXTT3=
EXTT4=
EXTT5=
EXTT6=
EXTT7=
PLAYORDER=
